<svg width="156" height="117" viewBox="0 0 156 117" fill="none" xmlns="http://www.w3.org/2000/svg"><path fill-rule="evenodd" clip-rule="evenodd" d="M113.146 116.535c-13.206 0-24.216-6.873-24.614-17.476-.077-1.417.041-2.837.35-4.222l12.591-14.872c-3.787-2.433-5.68-5.746-5.68-9.713-.003-1.31.21-2.612.634-3.853a36.106 36.106 0 0 1-24.982 9.467c-11.474 0-21.414-4.819-26.08-11.36l-3.73 4.27c-4.09 4.922-9.136 7.062-14.295 7.062-11.114 0-16.756-8.142-16.756-16.283V20.959H0v-2.84C11.384 18.12 13.541 9 15.156 2.173c.18-.758.352-1.487.53-2.173h4.07v15.383h19.56v5.254h-19.56V59.31c0 7.298 4.545 11.88 10.547 11.88 4.26 0 6.986-1.893 11.019-6.532l2.348-2.688a33.077 33.077 0 0 1-4.402-16.027c0-19.88 13.67-32.32 27.642-32.32a30.994 30.994 0 0 1 21.196 8.35v16.482h-2.84l-4.042-12.042c-3.569-5.917-7.573-9.637-14.314-9.637-10.678 0-17.882 9.883-17.882 24.765 0 16.443 10.63 28.91 26.175 28.91a31.296 31.296 0 0 0 23.184-10.337l2.944-3.37a26.934 26.934 0 0 1-6.57-16.756c0-16.661 11.663-26.364 24.14-26.364a27.887 27.887 0 0 1 19.719 7.743l5.264-5.973h10.735v5.32h-11.644l-2.442 2.84a24.217 24.217 0 0 1 5.168 15.289c0 12.553-10.489 25.948-26.128 25.948a23.922 23.922 0 0 1-16.093-5.917l-1.098 1.25a8.378 8.378 0 0 0-2.584 6.295c0 3.039 2.574 6.513 7.393 6.513h29.858c10.584 0 18.261 5.472 18.261 14.626-.057 13.291-17.807 28.978-42.164 28.978Zm8.926-55.428c8.35 0 14.342-9.022 14.342-19.88 0-13.348-5.812-24.746-18.176-24.746-7.573 0-14.2 7.914-14.2 18.933-.028 14.589 6.315 25.693 18.034 25.693Zm-11.918 21.329h26.573c7.261 0 11.994 2.916 11.975 8.794 0 10.66-12.572 19.606-29.346 19.606-12.317 0-21.253-6.381-21.253-15.97a17.236 17.236 0 0 1 3.787-10.84l2.12-2.84a16.093 16.093 0 0 0 6.144 1.25Z" fill="#fff"/></svg>