<svg width="27" height="19" viewBox="0 0 27 19" fill="none" xmlns="http://www.w3.org/2000/svg">
<path d="M13.5002 18.5C17.6673 18.5 21.0454 14.5825 21.0454 9.75C21.0454 4.91751 17.6673 1 13.5002 1C9.33315 1 5.95508 4.91751 5.95508 9.75C5.95508 14.5825 9.33315 18.5 13.5002 18.5Z" stroke="black" stroke-miterlimit="10"/>
<path d="M13.5001 18.5C14.9537 18.5 16.1321 14.5825 16.1321 9.75C16.1321 4.91751 14.9537 1 13.5001 1C12.0465 1 10.8682 4.91751 10.8682 9.75C10.8682 14.5825 12.0465 18.5 13.5001 18.5Z" stroke="black" stroke-miterlimit="10"/>
<path d="M13.5 18.5C20.4036 18.5 26 14.5825 26 9.75C26 4.91751 20.4036 1 13.5 1C6.59644 1 1 4.91751 1 9.75C1 14.5825 6.59644 18.5 13.5 18.5Z" stroke="black" stroke-miterlimit="10"/>
<path d="M1 9.75H26" stroke="black" stroke-miterlimit="10"/>
</svg>
